<?xml version="1.0" encoding="iso-8859-1"?>
<!-- Uploaded to: SVG Repo, www.svgrepo.com, Generator: SVG Repo Mixer Tools -->
<svg fill="#000000" height="800px" width="800px" version="1.1" id="Layer_1" xmlns="http://www.w3.org/2000/svg" xmlns:xlink="http://www.w3.org/1999/xlink" 
	 viewBox="0 0 512 512" xml:space="preserve">
<g transform="translate(1 1)">
	<g>
		<g>
			<path d="M417.133-1H92.867c-14.507,0-25.6,11.093-25.6,25.6v460.8c0,14.507,11.093,25.6,25.6,25.6h324.267
				c14.507,0,25.6-11.093,25.6-25.6V24.6C442.733,10.093,431.64-1,417.133-1z M425.667,485.4c0,5.12-3.413,8.533-8.533,8.533H92.867
				c-5.12,0-8.533-3.413-8.533-8.533V24.6c0-5.12,3.413-8.533,8.533-8.533h324.267c5.12,0,8.533,3.413,8.533,8.533V485.4z"/>
			<path d="M141.507,306.2L255,447.853L368.493,306.2L255,164.547L141.507,306.2z M255,420.547L163.693,306.2L255,191.853
				L346.307,306.2L255,420.547z"/>
			<path d="M169.667,109.933V50.2h8.533c5.12,0,8.533-3.413,8.533-8.533s-3.413-8.533-8.533-8.533h-34.133
				c-5.12,0-8.533,3.413-8.533,8.533s3.413,8.533,8.533,8.533h8.533v59.733c0,9.387-7.68,17.067-17.067,17.067
				s-17.067-7.68-17.067-17.067c0-5.12-3.413-8.533-8.533-8.533s-8.533,3.413-8.533,8.533c0,18.773,15.36,34.133,34.133,34.133
				S169.667,128.707,169.667,109.933z"/>
		</g>
	</g>
</g>
</svg>