<?xml version="1.0" encoding="iso-8859-1"?>
<!-- Uploaded to: SVG Repo, www.svgrepo.com, Generator: SVG Repo Mixer Tools -->
<svg fill="#000000" height="800px" width="800px" version="1.1" id="Layer_1" xmlns="http://www.w3.org/2000/svg" xmlns:xlink="http://www.w3.org/1999/xlink" 
	 viewBox="0 0 512 512" xml:space="preserve">
<g transform="translate(1 1)">
	<g>
		<g>
			<path d="M417.133-1H92.867c-14.507,0-25.6,11.093-25.6,25.6v460.8c0,14.507,11.093,25.6,25.6,25.6h324.267
				c14.507,0,25.6-11.093,25.6-25.6V24.6C442.733,10.093,431.64-1,417.133-1z M425.667,485.4c0,5.12-3.413,8.533-8.533,8.533H92.867
				c-5.12,0-8.533-3.413-8.533-8.533V24.6c0-5.12,3.413-8.533,8.533-8.533h324.267c5.12,0,8.533,3.413,8.533,8.533V485.4z"/>
			<path d="M307.907,186.733c-20.48,0-40.107,11.947-52.907,32.427c-12.8-20.48-31.573-32.427-52.907-32.427
				c-23.04,0-43.52,10.24-58.027,29.013C127,237.933,114.2,287.427,152.6,324.973c17.067,17.067,96.427,98.133,96.427,98.133
				L255,429.08l5.973-5.12c0,0,79.36-81.067,96.427-98.133c38.4-38.4,25.6-87.893,8.533-110.08
				C351.427,196.973,330.947,186.733,307.907,186.733z M345.453,313.027c-13.653,14.507-71.68,73.387-90.453,92.16
				c-18.773-19.627-75.947-77.653-90.453-92.16c-30.72-30.72-20.48-69.12-6.827-87.04c11.093-13.653,27.307-22.187,44.373-22.187
				c22.187,0,38.4,20.48,45.227,36.693l7.68,20.48l7.68-19.627c6.827-17.067,23.04-37.547,45.227-37.547
				c17.067,0,33.28,8.533,44.373,22.187C365.933,243.053,376.173,282.307,345.453,313.027z"/>
			<path d="M160.927,118.467l9.593,28.16c0.853,3.413,4.267,5.973,7.68,5.973c0.853,0,1.707,0,2.56,0
				c4.267-1.707,6.827-6.827,5.12-11.093l-34.133-102.4c-0.853-3.413-4.267-5.973-7.68-5.973s-6.827,2.56-8.533,5.973l-34.133,102.4
				c-1.707,5.12,0.853,9.387,5.12,11.093c5.12,1.707,9.387-0.853,11.093-5.12l9.776-29.013H160.927z M144.067,68.973l11.046,32.427
				H133.14L144.067,68.973z"/>
		</g>
	</g>
</g>
</svg>