<?xml version="1.0" encoding="iso-8859-1"?>
<!-- Uploaded to: SVG Repo, www.svgrepo.com, Generator: SVG Repo Mixer Tools -->
<svg fill="#000000" height="800px" width="800px" version="1.1" id="Layer_1" xmlns="http://www.w3.org/2000/svg" xmlns:xlink="http://www.w3.org/1999/xlink" 
	 viewBox="0 0 512 512" xml:space="preserve">
<g transform="translate(1 1)">
	<g>
		<g>
			<path d="M417.133-1H92.867c-14.507,0-25.6,11.093-25.6,25.6v460.8c0,14.507,11.093,25.6,25.6,25.6h324.267
				c14.507,0,25.6-11.093,25.6-25.6V24.6C442.733,10.093,431.64-1,417.133-1z M425.667,485.4c0,5.12-3.413,8.533-8.533,8.533H92.867
				c-5.12,0-8.533-3.413-8.533-8.533V24.6c0-5.12,3.413-8.533,8.533-8.533h324.267c5.12,0,8.533,3.413,8.533,8.533V485.4z"/>
			<path d="M141.507,306.2L255,447.853L368.493,306.2L255,164.547L141.507,306.2z M255,420.547L163.693,306.2L255,191.853
				L346.307,306.2L255,420.547z"/>
			<path d="M169.667,118.467c0-10.17-4.514-19.333-11.63-25.6c7.117-6.267,11.63-15.43,11.63-25.6
				c0-18.773-15.36-34.133-34.133-34.133S101.4,48.493,101.4,67.267c0,10.17,4.514,19.333,11.63,25.6
				c-7.117,6.267-11.63,15.43-11.63,25.6c0,18.773,15.36,34.133,34.133,34.133S169.667,137.24,169.667,118.467z M118.467,67.267
				c0-9.387,7.68-17.067,17.067-17.067S152.6,57.88,152.6,67.267s-7.68,17.067-17.067,17.067S118.467,76.653,118.467,67.267z
				 M135.533,135.533c-9.387,0-17.067-7.68-17.067-17.067s7.68-17.067,17.067-17.067s17.067,7.68,17.067,17.067
				S144.92,135.533,135.533,135.533z"/>
		</g>
	</g>
</g>
</svg>