<?xml version="1.0" encoding="iso-8859-1"?>
<!-- Uploaded to: SVG Repo, www.svgrepo.com, Generator: SVG Repo Mixer Tools -->
<svg fill="#000000" height="800px" width="800px" version="1.1" id="Layer_1" xmlns="http://www.w3.org/2000/svg" xmlns:xlink="http://www.w3.org/1999/xlink" 
	 viewBox="0 0 512 512" xml:space="preserve">
<g transform="translate(1 1)">
	<g>
		<g>
			<path d="M417.133-1H92.867c-14.507,0-25.6,11.093-25.6,25.6v460.8c0,14.507,11.093,25.6,25.6,25.6h324.267
				c14.507,0,25.6-11.093,25.6-25.6V24.6C442.733,10.093,431.64-1,417.133-1z M425.667,485.4c0,5.12-3.413,8.533-8.533,8.533H92.867
				c-5.12,0-8.533-3.413-8.533-8.533V24.6c0-5.12,3.413-8.533,8.533-8.533h324.267c5.12,0,8.533,3.413,8.533,8.533V485.4z"/>
			<path d="M164.547,102.253c0-19.627-15.36-34.987-34.987-34.987c-3.67,0-7.468,0.661-11.093,1.915V50.2H152.6
				c5.12,0,8.533-3.413,8.533-8.533s-3.413-8.533-8.533-8.533h-42.667c-5.12,0-8.533,3.413-8.533,8.533v42.667
				c0,3.547,1.64,6.273,4.35,7.614c3.363,2.446,7.895,1.474,11.01-1.641c3.413-3.413,7.68-5.973,12.8-5.973
				c10.24,0,17.92,7.68,17.92,17.92c0,10.24-7.68,17.92-17.92,17.92c-5.12,0-10.24-1.707-13.653-5.973
				c-3.413-3.413-8.533-4.267-11.947-0.853s-4.267,8.533-0.853,11.947c6.827,7.68,16.213,11.947,26.453,11.947
				C149.187,137.24,164.547,121.88,164.547,102.253z"/>
			<path d="M350.573,272.067l-81.92-80.213c-7.68-6.827-18.773-6.827-27.307,0l-82.773,80.213
				c-24.747,25.6-29.867,56.32-12.8,81.067c11.947,17.92,25.6,27.307,41.813,29.013c12.8,0.853,23.893-2.56,32.427-7.68
				c-1.707,17.067-5.973,34.133-6.827,38.4c-0.853,2.56,0,5.973,1.707,8.533c1.707,2.56,4.267,4.267,7.68,4.267h64
				c3.413,0,6.827-1.707,9.387-3.413c1.707-2.56,2.56-5.12,1.707-8.533c-1.707-5.973-5.12-22.187-6.827-38.4
				c8.533,5.12,19.627,9.387,32.427,7.68c16.213-1.707,29.867-11.093,41.813-29.013
				C382.147,327.533,377.027,296.813,350.573,272.067z M349.72,344.6c-8.533,12.8-18.773,20.48-29.013,21.333
				c-18.773,1.707-34.133-14.507-34.987-14.507l-14.507-14.507v20.48c0,17.067,4.267,38.4,6.827,51.2h-46.933
				c3.413-12.8,6.827-33.28,5.973-51.2v-20.48l-14.507,14.507c0,0-16.213,15.36-34.133,13.653
				c-10.24-0.853-20.48-8.533-29.013-21.333c-17.067-25.6,2.56-50.347,11.093-59.733l81.92-79.36c0.853-0.853,3.413-0.853,4.267,0
				l81.067,80.213C349.72,295.96,366.787,319,349.72,344.6z"/>
		</g>
	</g>
</g>
</svg>