<?xml version="1.0" encoding="iso-8859-1"?>
<!-- Uploaded to: SVG Repo, www.svgrepo.com, Generator: SVG Repo Mixer Tools -->
<svg fill="#000000" height="800px" width="800px" version="1.1" id="Layer_1" xmlns="http://www.w3.org/2000/svg" xmlns:xlink="http://www.w3.org/1999/xlink" 
	 viewBox="0 0 512 512" xml:space="preserve">
<g transform="translate(1 1)">
	<g>
		<g>
			<path d="M417.133-1H92.867c-14.507,0-25.6,11.093-25.6,25.6v460.8c0,14.507,11.093,25.6,25.6,25.6h324.267
				c14.507,0,25.6-11.093,25.6-25.6V24.6C442.733,10.093,431.64-1,417.133-1z M425.667,485.4c0,5.12-3.413,8.533-8.533,8.533H92.867
				c-5.12,0-8.533-3.413-8.533-8.533V24.6c0-5.12,3.413-8.533,8.533-8.533h324.267c5.12,0,8.533,3.413,8.533,8.533V485.4z"/>
			<path d="M141.507,306.2L255,447.853L368.493,306.2L255,164.547L141.507,306.2z M255,420.547L163.693,306.2L255,191.853
				L346.307,306.2L255,420.547z"/>
			<path d="M125.216,96.513l37.624,52.674c1.707,2.56,4.267,3.413,6.827,3.413c1.707,0,3.413-0.853,5.12-1.707
				c3.413-2.56,4.267-8.533,1.707-11.947L136.653,83.17l30.454-35.53c3.413-3.413,2.56-8.533-0.853-11.947s-8.533-2.56-11.947,0.853
				l-35.84,41.813V41.667c0-5.12-3.413-8.533-8.533-8.533s-8.533,3.413-8.533,8.533V98.91c-0.63,1.677-0.589,3.508,0,5.253v39.903
				c0,5.12,3.413,8.533,8.533,8.533s8.533-3.413,8.533-8.533v-39.68L125.216,96.513z"/>
		</g>
	</g>
</g>
</svg>