<?xml version="1.0" encoding="iso-8859-1"?>
<!-- Uploaded to: SVG Repo, www.svgrepo.com, Generator: SVG Repo Mixer Tools -->
<svg fill="#000000" height="800px" width="800px" version="1.1" id="Layer_1" xmlns="http://www.w3.org/2000/svg" xmlns:xlink="http://www.w3.org/1999/xlink" 
	 viewBox="0 0 512 512" xml:space="preserve">
<g transform="translate(1 1)">
	<g>
		<g>
			<path d="M417.133-1H92.867c-14.507,0-25.6,11.093-25.6,25.6v460.8c0,14.507,11.093,25.6,25.6,25.6h324.267
				c14.507,0,25.6-11.093,25.6-25.6V24.6C442.733,10.093,431.64-1,417.133-1z M425.667,485.4c0,5.12-3.413,8.533-8.533,8.533H92.867
				c-5.12,0-8.533-3.413-8.533-8.533V24.6c0-5.12,3.413-8.533,8.533-8.533h324.267c5.12,0,8.533,3.413,8.533,8.533V485.4z"/>
			<path d="M141.507,306.2L255,447.853L368.493,306.2L255,164.547L141.507,306.2z M255,420.547L163.693,306.2L255,191.853
				L346.307,306.2L255,420.547z"/>
			<path d="M160.927,118.467l9.593,28.16c0.853,3.413,4.267,5.973,7.68,5.973c0.853,0,1.707,0,2.56,0
				c4.267-1.707,6.827-6.827,5.12-11.093l-34.133-102.4c-0.853-3.413-4.267-5.973-7.68-5.973s-6.827,2.56-8.533,5.973l-34.133,102.4
				c-1.707,5.12,0.853,9.387,5.12,11.093c5.12,1.707,9.387-0.853,11.093-5.12l9.776-29.013H160.927z M144.067,68.973l11.046,32.427
				H133.14L144.067,68.973z"/>
		</g>
	</g>
</g>
</svg>