<?xml version="1.0" encoding="iso-8859-1"?>
<!-- Uploaded to: SVG Repo, www.svgrepo.com, Generator: SVG Repo Mixer Tools -->
<svg fill="#000000" height="800px" width="800px" version="1.1" id="Layer_1" xmlns="http://www.w3.org/2000/svg" xmlns:xlink="http://www.w3.org/1999/xlink" 
	 viewBox="0 0 512 512" xml:space="preserve">
<g transform="translate(1 1)">
	<g>
		<g>
			<path d="M417.133-1H92.867c-14.507,0-25.6,11.093-25.6,25.6v460.8c0,14.507,11.093,25.6,25.6,25.6h324.267
				c14.507,0,25.6-11.093,25.6-25.6V24.6C442.733,10.093,431.64-1,417.133-1z M425.667,485.4c0,5.12-3.413,8.533-8.533,8.533H92.867
				c-5.12,0-8.533-3.413-8.533-8.533V24.6c0-5.12,3.413-8.533,8.533-8.533h324.267c5.12,0,8.533,3.413,8.533,8.533V485.4z"/>
			<path d="M307.907,186.733c-20.48,0-40.107,11.947-52.907,32.427c-12.8-20.48-31.573-32.427-52.907-32.427
				c-23.04,0-43.52,10.24-58.027,29.013C127,237.933,114.2,287.427,152.6,324.973c17.067,17.067,96.427,98.133,96.427,98.133
				L255,429.08l5.973-5.12c0,0,79.36-81.067,96.427-98.133c38.4-38.4,25.6-87.893,8.533-110.08
				C351.427,196.973,330.947,186.733,307.907,186.733z M345.453,313.027c-13.653,14.507-71.68,73.387-90.453,92.16
				c-18.773-19.627-75.947-77.653-90.453-92.16c-30.72-30.72-20.48-69.12-6.827-87.04c11.093-13.653,27.307-22.187,44.373-22.187
				c22.187,0,38.4,20.48,45.227,36.693l7.68,20.48l7.68-19.627c6.827-17.067,23.04-37.547,45.227-37.547
				c17.067,0,33.28,8.533,44.373,22.187C365.933,243.053,376.173,282.307,345.453,313.027z"/>
			<path d="M156.814,145.094l7.732,5.799c1.707,0.853,3.413,1.707,5.12,1.707c2.56,0,5.12-0.853,6.827-3.413
				c2.56-3.413,1.707-9.387-1.707-11.947l-7.709-5.782c1.665-4.01,2.589-8.397,2.589-12.991v-51.2
				c0-18.773-15.36-34.133-34.133-34.133S101.4,48.493,101.4,67.267v51.2c0,18.773,15.36,34.133,34.133,34.133
				C143.565,152.6,150.968,149.782,156.814,145.094z M118.467,118.467v-51.2c0-9.387,7.68-17.067,17.067-17.067
				S152.6,57.88,152.6,67.267v51.2c0,0.689-0.053,1.365-0.134,2.033l-11.813-8.86c-3.413-2.56-9.387-1.707-11.947,1.707
				c-2.56,3.413-1.707,9.387,1.707,11.947l11.814,8.861c-2.059,0.885-4.321,1.379-6.694,1.379
				C126.147,135.533,118.467,127.853,118.467,118.467z"/>
		</g>
	</g>
</g>
</svg>