<?xml version="1.0" encoding="iso-8859-1"?>
<!-- Uploaded to: SVG Repo, www.svgrepo.com, Generator: SVG Repo Mixer Tools -->
<svg fill="#000000" height="800px" width="800px" version="1.1" id="Layer_1" xmlns="http://www.w3.org/2000/svg" xmlns:xlink="http://www.w3.org/1999/xlink" 
	 viewBox="0 0 512 512" xml:space="preserve">
<g transform="translate(1 1)">
	<g>
		<g>
			<path d="M417.133-1H92.867c-14.507,0-25.6,11.093-25.6,25.6v460.8c0,14.507,11.093,25.6,25.6,25.6h324.267
				c14.507,0,25.6-11.093,25.6-25.6V24.6C442.733,10.093,431.64-1,417.133-1z M425.667,485.4c0,5.12-3.413,8.533-8.533,8.533H92.867
				c-5.12,0-8.533-3.413-8.533-8.533V24.6c0-5.12,3.413-8.533,8.533-8.533h324.267c5.12,0,8.533,3.413,8.533,8.533V485.4z"/>
			<path d="M141.507,306.2L255,447.853L368.493,306.2L255,164.547L141.507,306.2z M255,420.547L163.693,306.2L255,191.853
				L346.307,306.2L255,420.547z"/>
			<path d="M164.547,150.893c1.707,0.853,3.413,1.707,5.12,1.707c2.56,0,5.12-0.853,6.827-3.413
				c2.56-3.413,1.707-9.387-1.707-11.947l-7.709-5.782c1.665-4.01,2.589-8.397,2.589-12.991v-51.2
				c0-18.773-15.36-34.133-34.133-34.133S101.4,48.493,101.4,67.267v51.2c0,18.773,15.36,34.133,34.133,34.133
				c8.032,0,15.434-2.818,21.281-7.506L164.547,150.893z M135.533,135.533c-9.387,0-17.067-7.68-17.067-17.067v-51.2
				c0-9.387,7.68-17.067,17.067-17.067S152.6,57.88,152.6,67.267v51.2c0,0.689-0.053,1.365-0.134,2.033l-11.813-8.86
				c-3.413-2.56-9.387-1.707-11.947,1.707c-2.56,3.413-1.707,9.387,1.707,11.947l11.814,8.861
				C140.169,135.039,137.907,135.533,135.533,135.533z"/>
		</g>
	</g>
</g>
</svg>