<?xml version="1.0" encoding="iso-8859-1"?>
<!-- Uploaded to: SVG Repo, www.svgrepo.com, Generator: SVG Repo Mixer Tools -->
<svg fill="#000000" height="800px" width="800px" version="1.1" id="Layer_1" xmlns="http://www.w3.org/2000/svg" xmlns:xlink="http://www.w3.org/1999/xlink" 
	 viewBox="0 0 512 512" xml:space="preserve">
<g transform="translate(1 1)">
	<g>
		<g>
			<path d="M417.133-1H92.867c-14.507,0-25.6,11.093-25.6,25.6v460.8c0,14.507,11.093,25.6,25.6,25.6h324.267
				c14.507,0,25.6-11.093,25.6-25.6V24.6C442.733,10.093,431.64-1,417.133-1z M425.667,485.4c0,5.12-3.413,8.533-8.533,8.533H92.867
				c-5.12,0-8.533-3.413-8.533-8.533V24.6c0-5.12,3.413-8.533,8.533-8.533h324.267c5.12,0,8.533,3.413,8.533,8.533V485.4z"/>
			<path d="M141.507,306.2L255,447.853L368.493,306.2L255,164.547L141.507,306.2z M255,420.547L163.693,306.2L255,191.853
				L346.307,306.2L255,420.547z"/>
			<path d="M164.547,102.253c0-19.627-15.36-34.987-34.987-34.987c-3.67,0-7.468,0.661-11.093,1.915V50.2H152.6
				c5.12,0,8.533-3.413,8.533-8.533s-3.413-8.533-8.533-8.533h-42.667c-5.12,0-8.533,3.413-8.533,8.533v42.667
				c0,3.547,1.64,6.273,4.35,7.614c3.363,2.446,7.895,1.474,11.01-1.641c3.413-3.413,7.68-5.973,12.8-5.973
				c10.24,0,17.92,7.68,17.92,17.92c0,10.24-7.68,17.92-17.92,17.92c-5.12,0-10.24-1.707-13.653-5.973
				c-3.413-3.413-8.533-4.267-11.947-0.853s-4.267,8.533-0.853,11.947c6.827,7.68,16.213,11.947,26.453,11.947
				C149.187,137.24,164.547,121.88,164.547,102.253z"/>
		</g>
	</g>
</g>
</svg>