<?xml version="1.0" encoding="UTF-8"?>
<svg xmlns="http://www.w3.org/2000/svg" xmlns:xlink="http://www.w3.org/1999/xlink" width="854" height="480" viewBox="0 0 854 480">
<defs>
<g>
<g id="glyph-0-0">
<path d="M 8.519531 0 L 0.894531 0 L 0.894531 -1.113281 C 1.042969 -1.28125 1.246094 -1.46875 1.503906 -1.679688 C 1.765625 -1.886719 2.074219 -2.113281 2.433594 -2.355469 C 2.648438 -2.503906 2.910156 -2.664062 3.214844 -2.835938 C 3.519531 -3.011719 3.863281 -3.199219 4.246094 -3.40625 C 4.675781 -3.632812 5.007812 -3.835938 5.238281 -4.007812 C 5.46875 -4.179688 5.675781 -4.394531 5.867188 -4.648438 C 5.992188 -4.816406 6.09375 -5.027344 6.167969 -5.28125 C 6.246094 -5.53125 6.28125 -5.890625 6.28125 -6.359375 C 6.28125 -7.035156 6.101562 -7.53125 5.738281 -7.847656 C 5.375 -8.167969 4.90625 -8.324219 4.335938 -8.324219 C 3.984375 -8.324219 3.652344 -8.257812 3.335938 -8.117188 C 3.023438 -7.980469 2.785156 -7.789062 2.628906 -7.542969 C 2.667969 -7.371094 2.714844 -7.164062 2.769531 -6.925781 C 2.828125 -6.6875 2.855469 -6.453125 2.855469 -6.226562 C 2.855469 -6.019531 2.769531 -5.835938 2.601562 -5.675781 C 2.429688 -5.515625 2.175781 -5.4375 1.839844 -5.4375 C 1.566406 -5.4375 1.359375 -5.53125 1.210938 -5.71875 C 1.066406 -5.902344 0.992188 -6.15625 0.992188 -6.46875 C 0.992188 -6.761719 1.074219 -7.058594 1.238281 -7.351562 C 1.398438 -7.648438 1.632812 -7.921875 1.9375 -8.171875 C 2.234375 -8.414062 2.605469 -8.613281 3.042969 -8.765625 C 3.484375 -8.917969 3.957031 -8.992188 4.46875 -8.992188 C 5.578125 -8.992188 6.464844 -8.746094 7.117188 -8.25 C 7.769531 -7.753906 8.097656 -7.089844 8.097656 -6.261719 C 8.097656 -5.867188 8.039062 -5.503906 7.921875 -5.179688 C 7.804688 -4.855469 7.617188 -4.566406 7.355469 -4.316406 C 7.070312 -4.042969 6.734375 -3.804688 6.347656 -3.605469 C 5.960938 -3.410156 5.375 -3.132812 4.582031 -2.78125 C 4.109375 -2.570312 3.671875 -2.347656 3.261719 -2.121094 C 2.855469 -1.890625 2.523438 -1.664062 2.261719 -1.449219 L 8.519531 -1.449219 Z "/>
</g>
<g id="glyph-0-1">
<path d="M 8.359375 -7.601562 C 8.703125 -7.183594 8.964844 -6.695312 9.136719 -6.132812 C 9.304688 -5.570312 9.390625 -4.984375 9.390625 -4.371094 C 9.390625 -3.632812 9.285156 -2.972656 9.074219 -2.386719 C 8.863281 -1.804688 8.570312 -1.320312 8.203125 -0.9375 C 7.824219 -0.539062 7.371094 -0.242188 6.851562 -0.0390625 C 6.332031 0.160156 5.75 0.261719 5.109375 0.261719 C 4.410156 0.261719 3.785156 0.144531 3.238281 -0.0898438 C 2.691406 -0.324219 2.246094 -0.644531 1.902344 -1.050781 C 1.546875 -1.472656 1.277344 -1.96875 1.101562 -2.535156 C 0.925781 -3.101562 0.839844 -3.714844 0.839844 -4.371094 C 0.839844 -5.015625 0.921875 -5.609375 1.09375 -6.152344 C 1.265625 -6.695312 1.53125 -7.1875 1.894531 -7.625 C 2.242188 -8.046875 2.691406 -8.382812 3.238281 -8.625 C 3.785156 -8.871094 4.414062 -8.992188 5.117188 -8.992188 C 5.863281 -8.992188 6.5 -8.867188 7.03125 -8.617188 C 7.5625 -8.367188 8.003906 -8.03125 8.359375 -7.601562 M 7.59375 -4.371094 C 7.59375 -5.660156 7.371094 -6.664062 6.929688 -7.371094 C 6.488281 -8.082031 5.886719 -8.4375 5.125 -8.4375 C 4.355469 -8.4375 3.75 -8.082031 3.304688 -7.371094 C 2.859375 -6.664062 2.636719 -5.660156 2.636719 -4.371094 C 2.636719 -3.144531 2.851562 -2.15625 3.277344 -1.410156 C 3.703125 -0.664062 4.3125 -0.292969 5.109375 -0.292969 C 5.90625 -0.292969 6.519531 -0.664062 6.949219 -1.410156 C 7.378906 -2.15625 7.59375 -3.144531 7.59375 -4.371094 Z "/>
</g>
<g id="glyph-0-2">
<path d="M 9.089844 -3.058594 C 9.089844 -2.148438 8.695312 -1.363281 7.910156 -0.707031 C 7.125 -0.0507812 6.089844 0.277344 4.808594 0.277344 C 3.609375 0.277344 2.648438 -0.0234375 1.929688 -0.625 C 1.207031 -1.230469 0.847656 -2.003906 0.847656 -2.953125 C 0.847656 -3.652344 1.058594 -4.238281 1.484375 -4.707031 C 1.910156 -5.175781 2.542969 -5.574219 3.378906 -5.898438 C 2.6875 -6.285156 2.171875 -6.707031 1.832031 -7.167969 C 1.488281 -7.628906 1.316406 -8.152344 1.316406 -8.730469 C 1.316406 -9.617188 1.695312 -10.355469 2.445312 -10.953125 C 3.195312 -11.550781 4.097656 -11.847656 5.144531 -11.847656 C 6.191406 -11.847656 7.039062 -11.566406 7.6875 -11.003906 C 8.335938 -10.4375 8.660156 -9.730469 8.660156 -8.878906 C 8.660156 -8.332031 8.480469 -7.8125 8.121094 -7.320312 C 7.761719 -6.828125 7.238281 -6.425781 6.542969 -6.113281 C 7.445312 -5.726562 8.09375 -5.300781 8.492188 -4.832031 C 8.890625 -4.367188 9.089844 -3.777344 9.089844 -3.058594 M 7.121094 -8.96875 C 7.121094 -9.628906 6.925781 -10.167969 6.53125 -10.582031 C 6.136719 -11 5.632812 -11.207031 5.019531 -11.207031 C 4.40625 -11.207031 3.90625 -11.007812 3.515625 -10.609375 C 3.125 -10.210938 2.929688 -9.714844 2.929688 -9.121094 C 2.929688 -8.554688 3.152344 -8.070312 3.597656 -7.675781 C 4.042969 -7.277344 4.832031 -6.855469 5.972656 -6.40625 C 6.378906 -6.664062 6.671875 -7.007812 6.851562 -7.4375 C 7.03125 -7.867188 7.121094 -8.375 7.121094 -8.96875 M 7.460938 -2.675781 C 7.460938 -3.019531 7.390625 -3.320312 7.242188 -3.578125 C 7.097656 -3.835938 6.882812 -4.070312 6.609375 -4.28125 C 6.34375 -4.488281 5.972656 -4.703125 5.496094 -4.925781 C 5.023438 -5.152344 4.507812 -5.382812 3.953125 -5.613281 C 3.433594 -5.332031 3.050781 -4.972656 2.808594 -4.535156 C 2.5625 -4.101562 2.441406 -3.601562 2.441406 -3.042969 C 2.441406 -2.246094 2.675781 -1.601562 3.144531 -1.109375 C 3.613281 -0.621094 4.238281 -0.375 5.019531 -0.375 C 5.769531 -0.375 6.363281 -0.589844 6.804688 -1.023438 C 7.242188 -1.460938 7.460938 -2.011719 7.460938 -2.675781 Z "/>
</g>
</g>
</defs>
<g fill="rgb(100%, 100%, 100%)" fill-opacity="1">
<use xlink:href="#glyph-0-0" x="30" y="35.282227"/>
<use xlink:href="#glyph-0-1" x="39" y="35.282227"/>
<use xlink:href="#glyph-0-1" x="49" y="35.282227"/>
<use xlink:href="#glyph-0-2" x="59" y="35.282227"/>
</g>
</svg>
