<?xml version="1.0" encoding="UTF-8"?>
<svg xmlns="http://www.w3.org/2000/svg" xmlns:xlink="http://www.w3.org/1999/xlink" width="1080" height="1920" viewBox="0 0 1080 1920">
<defs>
<g>
<g id="glyph-0-0">
<path d="M 6.582031 0 L 1.097656 0 L 1.097656 -0.578125 C 1.261719 -0.589844 1.515625 -0.613281 1.859375 -0.648438 C 2.203125 -0.683594 2.441406 -0.71875 2.570312 -0.757812 C 2.738281 -0.8125 2.867188 -0.898438 2.957031 -1.019531 C 3.046875 -1.144531 3.09375 -1.328125 3.09375 -1.570312 L 3.09375 -7.285156 L 1.066406 -7.285156 L 1.066406 -7.96875 L 1.511719 -7.96875 C 2.097656 -7.96875 2.625 -8.074219 3.089844 -8.292969 C 3.550781 -8.507812 3.882812 -8.742188 4.085938 -8.992188 L 4.761719 -8.992188 C 4.746094 -8.640625 4.726562 -8.226562 4.710938 -7.753906 C 4.695312 -7.285156 4.6875 -6.859375 4.6875 -6.484375 L 4.6875 -1.660156 C 4.6875 -1.46875 4.730469 -1.300781 4.8125 -1.152344 C 4.898438 -1.003906 5.019531 -0.890625 5.175781 -0.820312 C 5.316406 -0.761719 5.546875 -0.707031 5.867188 -0.660156 C 6.1875 -0.609375 6.425781 -0.582031 6.582031 -0.578125 Z "/>
</g>
<g id="glyph-0-1">
<path d="M 8.519531 0 L 0.894531 0 L 0.894531 -1.113281 C 1.042969 -1.28125 1.246094 -1.46875 1.503906 -1.679688 C 1.765625 -1.886719 2.074219 -2.113281 2.433594 -2.355469 C 2.648438 -2.503906 2.910156 -2.664062 3.214844 -2.835938 C 3.519531 -3.011719 3.863281 -3.199219 4.246094 -3.40625 C 4.675781 -3.632812 5.007812 -3.835938 5.238281 -4.007812 C 5.46875 -4.179688 5.675781 -4.394531 5.867188 -4.648438 C 5.992188 -4.816406 6.09375 -5.027344 6.167969 -5.28125 C 6.246094 -5.53125 6.28125 -5.890625 6.28125 -6.359375 C 6.28125 -7.035156 6.101562 -7.53125 5.738281 -7.847656 C 5.375 -8.167969 4.90625 -8.324219 4.335938 -8.324219 C 3.984375 -8.324219 3.652344 -8.257812 3.335938 -8.117188 C 3.023438 -7.980469 2.785156 -7.789062 2.628906 -7.542969 C 2.667969 -7.371094 2.714844 -7.164062 2.769531 -6.925781 C 2.828125 -6.6875 2.855469 -6.453125 2.855469 -6.226562 C 2.855469 -6.019531 2.769531 -5.835938 2.601562 -5.675781 C 2.429688 -5.515625 2.175781 -5.4375 1.839844 -5.4375 C 1.566406 -5.4375 1.359375 -5.53125 1.210938 -5.71875 C 1.066406 -5.902344 0.992188 -6.15625 0.992188 -6.46875 C 0.992188 -6.761719 1.074219 -7.058594 1.238281 -7.351562 C 1.398438 -7.648438 1.632812 -7.921875 1.9375 -8.171875 C 2.234375 -8.414062 2.605469 -8.613281 3.042969 -8.765625 C 3.484375 -8.917969 3.957031 -8.992188 4.46875 -8.992188 C 5.578125 -8.992188 6.464844 -8.746094 7.117188 -8.25 C 7.769531 -7.753906 8.097656 -7.089844 8.097656 -6.261719 C 8.097656 -5.867188 8.039062 -5.503906 7.921875 -5.179688 C 7.804688 -4.855469 7.617188 -4.566406 7.355469 -4.316406 C 7.070312 -4.042969 6.734375 -3.804688 6.347656 -3.605469 C 5.960938 -3.410156 5.375 -3.132812 4.582031 -2.78125 C 4.109375 -2.570312 3.671875 -2.347656 3.261719 -2.121094 C 2.855469 -1.890625 2.523438 -1.664062 2.261719 -1.449219 L 8.519531 -1.449219 Z "/>
</g>
<g id="glyph-0-2">
<path d="M 8.359375 -7.601562 C 8.703125 -7.183594 8.964844 -6.695312 9.136719 -6.132812 C 9.304688 -5.570312 9.390625 -4.984375 9.390625 -4.371094 C 9.390625 -3.632812 9.285156 -2.972656 9.074219 -2.386719 C 8.863281 -1.804688 8.570312 -1.320312 8.203125 -0.9375 C 7.824219 -0.539062 7.371094 -0.242188 6.851562 -0.0390625 C 6.332031 0.160156 5.75 0.261719 5.109375 0.261719 C 4.410156 0.261719 3.785156 0.144531 3.238281 -0.0898438 C 2.691406 -0.324219 2.246094 -0.644531 1.902344 -1.050781 C 1.546875 -1.472656 1.277344 -1.96875 1.101562 -2.535156 C 0.925781 -3.101562 0.839844 -3.714844 0.839844 -4.371094 C 0.839844 -5.015625 0.921875 -5.609375 1.09375 -6.152344 C 1.265625 -6.695312 1.53125 -7.1875 1.894531 -7.625 C 2.242188 -8.046875 2.691406 -8.382812 3.238281 -8.625 C 3.785156 -8.871094 4.414062 -8.992188 5.117188 -8.992188 C 5.863281 -8.992188 6.5 -8.867188 7.03125 -8.617188 C 7.5625 -8.367188 8.003906 -8.03125 8.359375 -7.601562 M 7.59375 -4.371094 C 7.59375 -5.660156 7.371094 -6.664062 6.929688 -7.371094 C 6.488281 -8.082031 5.886719 -8.4375 5.125 -8.4375 C 4.355469 -8.4375 3.75 -8.082031 3.304688 -7.371094 C 2.859375 -6.664062 2.636719 -5.660156 2.636719 -4.371094 C 2.636719 -3.144531 2.851562 -2.15625 3.277344 -1.410156 C 3.703125 -0.664062 4.3125 -0.292969 5.109375 -0.292969 C 5.90625 -0.292969 6.519531 -0.664062 6.949219 -1.410156 C 7.378906 -2.15625 7.59375 -3.144531 7.59375 -4.371094 Z "/>
</g>
<g id="glyph-0-3">
</g>
<g id="glyph-0-4">
<path d="M 9.636719 -8.699219 C 9.636719 -8.097656 9.515625 -7.5625 9.28125 -7.101562 C 9.046875 -6.636719 8.71875 -6.253906 8.300781 -5.949219 C 7.886719 -5.644531 7.433594 -5.421875 6.941406 -5.28125 C 6.449219 -5.140625 5.925781 -5.070312 5.371094 -5.070312 L 4.078125 -5.070312 L 4.078125 -1.570312 C 4.078125 -1.378906 4.109375 -1.214844 4.171875 -1.070312 C 4.234375 -0.925781 4.363281 -0.816406 4.558594 -0.742188 C 4.65625 -0.703125 4.828125 -0.667969 5.074219 -0.632812 C 5.320312 -0.601562 5.546875 -0.582031 5.753906 -0.578125 L 5.753906 0 L 0.796875 0 L 0.796875 -0.578125 C 0.925781 -0.589844 1.117188 -0.609375 1.363281 -0.632812 C 1.609375 -0.660156 1.78125 -0.695312 1.878906 -0.742188 C 2.042969 -0.8125 2.160156 -0.914062 2.234375 -1.050781 C 2.308594 -1.183594 2.34375 -1.359375 2.34375 -1.570312 L 2.34375 -9.902344 C 2.34375 -10.09375 2.316406 -10.265625 2.261719 -10.417969 C 2.207031 -10.570312 2.082031 -10.683594 1.878906 -10.757812 C 1.671875 -10.828125 1.46875 -10.878906 1.265625 -10.910156 C 1.0625 -10.9375 0.886719 -10.960938 0.742188 -10.96875 L 0.742188 -11.546875 L 6.015625 -11.546875 C 7.089844 -11.546875 7.960938 -11.289062 8.628906 -10.769531 C 9.300781 -10.253906 9.636719 -9.5625 9.636719 -8.699219 M 7.160156 -6.730469 C 7.347656 -6.992188 7.46875 -7.261719 7.527344 -7.539062 C 7.585938 -7.820312 7.617188 -8.070312 7.617188 -8.292969 C 7.617188 -8.601562 7.582031 -8.917969 7.507812 -9.238281 C 7.433594 -9.558594 7.308594 -9.835938 7.128906 -10.074219 C 6.9375 -10.328125 6.6875 -10.527344 6.378906 -10.667969 C 6.070312 -10.808594 5.6875 -10.878906 5.222656 -10.878906 L 4.078125 -10.878906 L 4.078125 -5.777344 L 4.90625 -5.777344 C 5.492188 -5.777344 5.96875 -5.867188 6.335938 -6.050781 C 6.703125 -6.230469 6.976562 -6.457031 7.160156 -6.730469 Z "/>
</g>
<g id="glyph-0-5">
<path d="M 10.507812 -3.402344 L 10.285156 0 L 0.699219 0 L 0.699219 -0.578125 C 0.863281 -0.589844 1.078125 -0.613281 1.351562 -0.648438 C 1.621094 -0.683594 1.796875 -0.71875 1.878906 -0.757812 C 2.054688 -0.839844 2.175781 -0.945312 2.242188 -1.074219 C 2.308594 -1.203125 2.34375 -1.371094 2.34375 -1.570312 L 2.34375 -9.871094 C 2.34375 -10.050781 2.3125 -10.210938 2.253906 -10.347656 C 2.195312 -10.484375 2.070312 -10.597656 1.878906 -10.683594 C 1.734375 -10.753906 1.535156 -10.816406 1.289062 -10.871094 C 1.042969 -10.925781 0.847656 -10.960938 0.699219 -10.96875 L 0.699219 -11.546875 L 9.636719 -11.546875 L 9.636719 -8.765625 L 9.023438 -8.765625 C 8.917969 -9.175781 8.683594 -9.613281 8.320312 -10.078125 C 7.960938 -10.542969 7.617188 -10.796875 7.292969 -10.839844 C 7.125 -10.863281 6.921875 -10.878906 6.6875 -10.886719 C 6.457031 -10.898438 6.191406 -10.90625 5.890625 -10.90625 L 4.078125 -10.90625 L 4.078125 -6.316406 L 5.378906 -6.316406 C 5.796875 -6.316406 6.101562 -6.355469 6.292969 -6.433594 C 6.488281 -6.511719 6.65625 -6.644531 6.804688 -6.828125 C 6.921875 -6.984375 7.023438 -7.195312 7.109375 -7.457031 C 7.191406 -7.722656 7.25 -7.96875 7.273438 -8.203125 L 7.886719 -8.203125 L 7.886719 -3.679688 L 7.273438 -3.679688 C 7.253906 -3.9375 7.195312 -4.214844 7.101562 -4.503906 C 7.003906 -4.792969 6.90625 -5.003906 6.804688 -5.136719 C 6.636719 -5.347656 6.445312 -5.484375 6.230469 -5.550781 C 6.015625 -5.613281 5.730469 -5.648438 5.378906 -5.648438 L 4.078125 -5.648438 L 4.078125 -2.1875 C 4.078125 -1.839844 4.101562 -1.566406 4.148438 -1.367188 C 4.199219 -1.164062 4.292969 -1.015625 4.433594 -0.910156 C 4.578125 -0.808594 4.769531 -0.742188 5.011719 -0.710938 C 5.257812 -0.683594 5.605469 -0.667969 6.054688 -0.667969 C 6.234375 -0.667969 6.46875 -0.667969 6.761719 -0.667969 C 7.054688 -0.667969 7.300781 -0.679688 7.503906 -0.699219 C 7.710938 -0.722656 7.921875 -0.761719 8.140625 -0.816406 C 8.363281 -0.875 8.519531 -0.953125 8.609375 -1.050781 C 8.859375 -1.308594 9.121094 -1.703125 9.394531 -2.234375 C 9.667969 -2.761719 9.84375 -3.152344 9.921875 -3.402344 Z "/>
</g>
<g id="glyph-0-6">
<path d="M 12.042969 0 L 8.933594 0 C 8.246094 -1.078125 7.625 -2.011719 7.070312 -2.800781 C 6.511719 -3.585938 5.910156 -4.398438 5.261719 -5.234375 L 4.078125 -5.234375 L 4.078125 -1.570312 C 4.078125 -1.378906 4.105469 -1.214844 4.167969 -1.070312 C 4.226562 -0.925781 4.355469 -0.816406 4.550781 -0.742188 C 4.648438 -0.703125 4.816406 -0.667969 5.0625 -0.632812 C 5.304688 -0.601562 5.511719 -0.582031 5.679688 -0.578125 L 5.679688 0 L 0.796875 0 L 0.796875 -0.578125 C 0.925781 -0.589844 1.117188 -0.609375 1.363281 -0.632812 C 1.609375 -0.660156 1.78125 -0.695312 1.878906 -0.742188 C 2.042969 -0.8125 2.160156 -0.914062 2.234375 -1.050781 C 2.308594 -1.183594 2.34375 -1.359375 2.34375 -1.570312 L 2.34375 -9.921875 C 2.34375 -10.109375 2.316406 -10.277344 2.261719 -10.425781 C 2.207031 -10.570312 2.082031 -10.683594 1.878906 -10.757812 C 1.746094 -10.808594 1.566406 -10.851562 1.351562 -10.894531 C 1.132812 -10.933594 0.949219 -10.960938 0.796875 -10.96875 L 0.796875 -11.546875 L 6.128906 -11.546875 C 6.617188 -11.546875 7.074219 -11.496094 7.503906 -11.398438 C 7.933594 -11.296875 8.320312 -11.136719 8.667969 -10.914062 C 9.003906 -10.695312 9.273438 -10.414062 9.472656 -10.0625 C 9.671875 -9.710938 9.773438 -9.289062 9.773438 -8.796875 C 9.773438 -8.351562 9.707031 -7.957031 9.570312 -7.617188 C 9.433594 -7.273438 9.234375 -6.980469 8.96875 -6.730469 C 8.722656 -6.496094 8.429688 -6.292969 8.089844 -6.125 C 7.746094 -5.953125 7.371094 -5.808594 6.957031 -5.6875 C 7.527344 -4.933594 8 -4.300781 8.378906 -3.785156 C 8.753906 -3.269531 9.21875 -2.640625 9.765625 -1.902344 C 10.003906 -1.578125 10.21875 -1.339844 10.414062 -1.183594 C 10.605469 -1.03125 10.796875 -0.902344 10.984375 -0.804688 C 11.128906 -0.734375 11.304688 -0.679688 11.515625 -0.644531 C 11.726562 -0.605469 11.902344 -0.582031 12.042969 -0.578125 L 12.042969 0 M 7.761719 -8.605469 C 7.761719 -9.304688 7.5625 -9.859375 7.160156 -10.265625 C 6.761719 -10.675781 6.191406 -10.878906 5.460938 -10.878906 L 4.078125 -10.878906 L 4.078125 -5.933594 L 5.144531 -5.933594 C 5.890625 -5.933594 6.515625 -6.171875 7.015625 -6.652344 C 7.515625 -7.132812 7.761719 -7.78125 7.761719 -8.605469 Z "/>
</g>
<g id="glyph-0-7">
<path d="M 14.695312 0 L 9.59375 0 L 9.59375 -0.578125 C 9.777344 -0.582031 10.015625 -0.601562 10.308594 -0.632812 C 10.597656 -0.667969 10.796875 -0.714844 10.90625 -0.773438 C 11.074219 -0.875 11.195312 -0.996094 11.273438 -1.128906 C 11.355469 -1.261719 11.394531 -1.425781 11.394531 -1.628906 L 11.394531 -10.027344 L 11.269531 -10.027344 L 7.332031 -0.1875 L 6.925781 -0.1875 L 3.171875 -10.230469 L 3.066406 -10.230469 L 3.066406 -3.335938 C 3.066406 -2.667969 3.109375 -2.160156 3.195312 -1.816406 C 3.277344 -1.46875 3.40625 -1.21875 3.582031 -1.066406 C 3.699219 -0.953125 3.945312 -0.84375 4.320312 -0.742188 C 4.695312 -0.636719 4.941406 -0.582031 5.054688 -0.578125 L 5.054688 0 L 0.390625 0 L 0.390625 -0.578125 C 0.632812 -0.597656 0.890625 -0.640625 1.160156 -0.699219 C 1.429688 -0.757812 1.636719 -0.847656 1.78125 -0.96875 C 1.972656 -1.121094 2.101562 -1.355469 2.171875 -1.667969 C 2.242188 -1.984375 2.277344 -2.507812 2.277344 -3.246094 L 2.277344 -9.15625 C 2.277344 -9.496094 2.238281 -9.777344 2.15625 -9.992188 C 2.074219 -10.210938 1.957031 -10.386719 1.804688 -10.523438 C 1.636719 -10.667969 1.433594 -10.777344 1.1875 -10.847656 C 0.945312 -10.917969 0.703125 -10.960938 0.464844 -10.96875 L 0.464844 -11.546875 L 4.402344 -11.546875 L 7.710938 -2.878906 L 10.53125 -10.132812 C 10.636719 -10.398438 10.722656 -10.675781 10.796875 -10.964844 C 10.871094 -11.257812 10.910156 -11.449219 10.914062 -11.546875 L 14.679688 -11.546875 L 14.679688 -10.96875 C 14.527344 -10.964844 14.335938 -10.941406 14.097656 -10.898438 C 13.863281 -10.851562 13.691406 -10.8125 13.582031 -10.773438 C 13.398438 -10.710938 13.273438 -10.601562 13.207031 -10.449219 C 13.144531 -10.296875 13.109375 -10.132812 13.109375 -9.953125 L 13.109375 -1.628906 C 13.109375 -1.4375 13.144531 -1.277344 13.207031 -1.148438 C 13.273438 -1.015625 13.398438 -0.902344 13.582031 -0.804688 C 13.679688 -0.75 13.855469 -0.703125 14.101562 -0.65625 C 14.351562 -0.609375 14.550781 -0.582031 14.695312 -0.578125 Z "/>
</g>
<g id="glyph-0-8">
<path d="M 12.476562 -10.96875 C 12.324219 -10.964844 12.101562 -10.933594 11.808594 -10.871094 C 11.515625 -10.8125 11.277344 -10.722656 11.09375 -10.605469 C 10.90625 -10.480469 10.78125 -10.222656 10.710938 -9.832031 C 10.640625 -9.441406 10.605469 -8.960938 10.605469 -8.398438 L 10.605469 -3.378906 C 10.605469 -2.738281 10.472656 -2.179688 10.203125 -1.707031 C 9.9375 -1.238281 9.589844 -0.847656 9.15625 -0.546875 C 8.726562 -0.253906 8.273438 -0.0429688 7.800781 0.0859375 C 7.324219 0.214844 6.871094 0.277344 6.4375 0.277344 C 5.742188 0.277344 5.125 0.1875 4.582031 0.00390625 C 4.039062 -0.175781 3.582031 -0.421875 3.214844 -0.730469 C 2.851562 -1.042969 2.578125 -1.394531 2.390625 -1.792969 C 2.207031 -2.191406 2.117188 -2.609375 2.117188 -3.042969 L 2.117188 -9.871094 C 2.117188 -10.0625 2.085938 -10.21875 2.023438 -10.347656 C 1.960938 -10.476562 1.832031 -10.59375 1.644531 -10.703125 C 1.507812 -10.777344 1.335938 -10.839844 1.121094 -10.882812 C 0.910156 -10.929688 0.738281 -10.960938 0.601562 -10.96875 L 0.601562 -11.546875 L 5.410156 -11.546875 L 5.410156 -10.96875 C 5.261719 -10.964844 5.070312 -10.941406 4.839844 -10.898438 C 4.609375 -10.851562 4.4375 -10.8125 4.328125 -10.773438 C 4.144531 -10.710938 4.023438 -10.601562 3.960938 -10.449219 C 3.898438 -10.296875 3.867188 -10.132812 3.867188 -9.953125 L 3.867188 -3.578125 C 3.867188 -3.269531 3.898438 -2.945312 3.96875 -2.605469 C 4.035156 -2.269531 4.167969 -1.953125 4.371094 -1.660156 C 4.582031 -1.359375 4.871094 -1.117188 5.234375 -0.925781 C 5.597656 -0.738281 6.09375 -0.644531 6.730469 -0.644531 C 7.328125 -0.644531 7.828125 -0.738281 8.230469 -0.925781 C 8.636719 -1.117188 8.953125 -1.367188 9.1875 -1.675781 C 9.410156 -1.96875 9.566406 -2.273438 9.660156 -2.59375 C 9.753906 -2.914062 9.796875 -3.238281 9.796875 -3.5625 L 9.796875 -8.292969 C 9.796875 -8.898438 9.753906 -9.386719 9.667969 -9.769531 C 9.582031 -10.152344 9.453125 -10.402344 9.285156 -10.523438 C 9.09375 -10.660156 8.835938 -10.765625 8.507812 -10.839844 C 8.179688 -10.914062 7.929688 -10.960938 7.753906 -10.96875 L 7.753906 -11.546875 L 12.476562 -11.546875 Z "/>
</g>
<g id="glyph-0-9">
<path d="M 10.1875 -8.414062 L 9.628906 -8.414062 C 9.578125 -8.609375 9.488281 -8.84375 9.363281 -9.109375 C 9.234375 -9.378906 9.089844 -9.632812 8.933594 -9.871094 C 8.769531 -10.121094 8.59375 -10.339844 8.398438 -10.527344 C 8.207031 -10.714844 8.019531 -10.820312 7.839844 -10.847656 C 7.671875 -10.871094 7.460938 -10.886719 7.203125 -10.898438 C 6.949219 -10.90625 6.710938 -10.914062 6.496094 -10.914062 L 6.023438 -10.914062 L 6.023438 -1.675781 C 6.023438 -1.496094 6.058594 -1.332031 6.136719 -1.183594 C 6.210938 -1.035156 6.34375 -0.917969 6.535156 -0.839844 C 6.632812 -0.800781 6.835938 -0.75 7.148438 -0.683594 C 7.460938 -0.617188 7.703125 -0.582031 7.878906 -0.578125 L 7.878906 0 L 2.425781 0 L 2.425781 -0.578125 C 2.578125 -0.589844 2.808594 -0.609375 3.121094 -0.644531 C 3.433594 -0.675781 3.648438 -0.714844 3.769531 -0.765625 C 3.945312 -0.835938 4.078125 -0.9375 4.164062 -1.070312 C 4.246094 -1.203125 4.289062 -1.378906 4.289062 -1.601562 L 4.289062 -10.914062 L 3.816406 -10.914062 C 3.648438 -10.914062 3.441406 -10.910156 3.191406 -10.902344 C 2.941406 -10.894531 2.703125 -10.875 2.472656 -10.847656 C 2.292969 -10.828125 2.109375 -10.71875 1.917969 -10.527344 C 1.722656 -10.332031 1.546875 -10.117188 1.382812 -9.871094 C 1.21875 -9.628906 1.078125 -9.367188 0.953125 -9.09375 C 0.828125 -8.820312 0.742188 -8.59375 0.691406 -8.414062 L 0.121094 -8.414062 L 0.121094 -11.546875 L 10.1875 -11.546875 Z "/>
</g>
<g id="glyph-0-10">
<path d="M 11.5625 0 L 6.765625 0 L 6.765625 -0.578125 C 7.1875 -0.605469 7.539062 -0.660156 7.816406 -0.742188 C 8.097656 -0.820312 8.238281 -0.921875 8.238281 -1.042969 C 8.238281 -1.089844 8.230469 -1.148438 8.21875 -1.21875 C 8.210938 -1.292969 8.195312 -1.355469 8.171875 -1.40625 L 7.214844 -3.996094 L 3.160156 -3.996094 C 3.011719 -3.617188 2.886719 -3.285156 2.792969 -3.003906 C 2.695312 -2.722656 2.609375 -2.460938 2.535156 -2.222656 C 2.464844 -1.988281 2.414062 -1.796875 2.386719 -1.652344 C 2.359375 -1.503906 2.347656 -1.386719 2.347656 -1.292969 C 2.347656 -1.078125 2.519531 -0.910156 2.859375 -0.789062 C 3.203125 -0.671875 3.585938 -0.597656 4.015625 -0.578125 L 4.015625 0 L -0.332031 0 L -0.332031 -0.578125 C -0.191406 -0.589844 -0.015625 -0.621094 0.195312 -0.671875 C 0.40625 -0.722656 0.582031 -0.792969 0.714844 -0.878906 C 0.933594 -1.023438 1.101562 -1.179688 1.21875 -1.339844 C 1.339844 -1.5 1.457031 -1.71875 1.570312 -2 C 2.152344 -3.449219 2.792969 -5.078125 3.492188 -6.882812 C 4.191406 -8.691406 4.816406 -10.300781 5.363281 -11.710938 L 6.015625 -11.710938 L 9.863281 -1.75 C 9.945312 -1.539062 10.035156 -1.367188 10.140625 -1.238281 C 10.242188 -1.105469 10.386719 -0.980469 10.570312 -0.855469 C 10.695312 -0.777344 10.859375 -0.714844 11.058594 -0.664062 C 11.261719 -0.613281 11.429688 -0.582031 11.5625 -0.578125 L 11.5625 0 M 6.917969 -4.71875 L 5.167969 -9.199219 L 3.445312 -4.71875 Z "/>
</g>
<g id="glyph-0-11">
<path d="M 5.878906 0.277344 C 5.191406 0.277344 4.53125 0.140625 3.898438 -0.128906 C 3.269531 -0.402344 2.707031 -0.792969 2.21875 -1.304688 C 1.738281 -1.8125 1.351562 -2.4375 1.066406 -3.171875 C 0.777344 -3.90625 0.632812 -4.738281 0.632812 -5.660156 C 0.632812 -6.582031 0.777344 -7.421875 1.058594 -8.171875 C 1.339844 -8.925781 1.730469 -9.570312 2.226562 -10.113281 C 2.722656 -10.652344 3.304688 -11.066406 3.976562 -11.359375 C 4.648438 -11.652344 5.367188 -11.800781 6.132812 -11.800781 C 6.699219 -11.800781 7.214844 -11.730469 7.675781 -11.589844 C 8.136719 -11.449219 8.574219 -11.25 8.992188 -10.996094 L 9.324219 -11.546875 L 9.976562 -11.546875 L 10.050781 -7.429688 L 9.382812 -7.429688 C 9.296875 -7.832031 9.167969 -8.265625 8.992188 -8.734375 C 8.820312 -9.207031 8.617188 -9.601562 8.382812 -9.929688 C 8.125 -10.296875 7.8125 -10.585938 7.457031 -10.796875 C 7.097656 -11.003906 6.691406 -11.109375 6.230469 -11.109375 C 5.703125 -11.109375 5.214844 -10.992188 4.761719 -10.757812 C 4.308594 -10.523438 3.917969 -10.179688 3.585938 -9.722656 C 3.273438 -9.285156 3.027344 -8.726562 2.847656 -8.046875 C 2.667969 -7.367188 2.578125 -6.609375 2.578125 -5.773438 C 2.578125 -5.035156 2.671875 -4.359375 2.859375 -3.742188 C 3.046875 -3.125 3.3125 -2.582031 3.660156 -2.117188 C 4.007812 -1.65625 4.417969 -1.292969 4.890625 -1.035156 C 5.367188 -0.773438 5.894531 -0.644531 6.480469 -0.644531 C 6.921875 -0.644531 7.324219 -0.710938 7.691406 -0.851562 C 8.0625 -0.988281 8.382812 -1.171875 8.652344 -1.398438 C 8.921875 -1.636719 9.160156 -1.910156 9.367188 -2.214844 C 9.574219 -2.515625 9.742188 -2.847656 9.871094 -3.207031 L 10.480469 -2.914062 C 10.015625 -1.769531 9.398438 -0.949219 8.628906 -0.460938 C 7.859375 0.03125 6.941406 0.277344 5.878906 0.277344 Z "/>
</g>
<g id="glyph-0-12">
<path d="M 5.84375 0 L 0.644531 0 L 0.644531 -0.578125 C 0.789062 -0.589844 1 -0.605469 1.277344 -0.625 C 1.554688 -0.648438 1.75 -0.679688 1.863281 -0.722656 C 2.042969 -0.792969 2.171875 -0.890625 2.253906 -1.011719 C 2.335938 -1.136719 2.375 -1.304688 2.375 -1.523438 L 2.375 -9.886719 C 2.375 -10.078125 2.347656 -10.234375 2.285156 -10.363281 C 2.226562 -10.492188 2.085938 -10.597656 1.863281 -10.683594 C 1.699219 -10.75 1.496094 -10.8125 1.25 -10.867188 C 1.003906 -10.925781 0.800781 -10.960938 0.644531 -10.96875 L 0.644531 -11.546875 L 5.84375 -11.546875 L 5.84375 -10.96875 C 5.675781 -10.964844 5.472656 -10.945312 5.242188 -10.910156 C 5.007812 -10.875 4.804688 -10.828125 4.628906 -10.773438 C 4.425781 -10.710938 4.285156 -10.605469 4.214844 -10.457031 C 4.144531 -10.3125 4.109375 -10.148438 4.109375 -9.96875 L 4.109375 -1.609375 C 4.109375 -1.433594 4.148438 -1.273438 4.226562 -1.136719 C 4.304688 -0.996094 4.441406 -0.886719 4.628906 -0.804688 C 4.746094 -0.761719 4.929688 -0.714844 5.1875 -0.664062 C 5.445312 -0.613281 5.664062 -0.582031 5.84375 -0.578125 Z "/>
</g>
<g id="glyph-0-13">
<path d="M 10.125 -10.179688 C 10.632812 -9.648438 11.03125 -9.007812 11.320312 -8.257812 C 11.609375 -7.503906 11.75 -6.671875 11.75 -5.761719 C 11.75 -4.84375 11.605469 -4.011719 11.3125 -3.261719 C 11.019531 -2.515625 10.613281 -1.878906 10.089844 -1.351562 C 9.585938 -0.828125 9 -0.429688 8.332031 -0.144531 C 7.664062 0.136719 6.957031 0.277344 6.199219 0.277344 C 5.398438 0.277344 4.65625 0.125 3.976562 -0.175781 C 3.292969 -0.476562 2.710938 -0.894531 2.222656 -1.433594 C 1.734375 -1.957031 1.347656 -2.597656 1.070312 -3.347656 C 0.789062 -4.101562 0.652344 -4.90625 0.652344 -5.761719 C 0.652344 -6.699219 0.796875 -7.539062 1.089844 -8.273438 C 1.382812 -9.007812 1.789062 -9.644531 2.304688 -10.179688 C 2.8125 -10.710938 3.40625 -11.121094 4.082031 -11.402344 C 4.757812 -11.683594 5.464844 -11.824219 6.199219 -11.824219 C 6.964844 -11.824219 7.6875 -11.679688 8.367188 -11.394531 C 9.042969 -11.105469 9.628906 -10.703125 10.125 -10.179688 M 8.910156 -1.992188 C 9.214844 -2.488281 9.4375 -3.046875 9.574219 -3.671875 C 9.710938 -4.292969 9.78125 -4.992188 9.78125 -5.761719 C 9.78125 -6.554688 9.703125 -7.28125 9.550781 -7.941406 C 9.394531 -8.605469 9.167969 -9.167969 8.871094 -9.636719 C 8.570312 -10.097656 8.199219 -10.457031 7.746094 -10.714844 C 7.296875 -10.972656 6.78125 -11.101562 6.199219 -11.101562 C 5.550781 -11.101562 4.996094 -10.949219 4.539062 -10.652344 C 4.085938 -10.355469 3.714844 -9.957031 3.425781 -9.457031 C 3.15625 -8.980469 2.953125 -8.421875 2.820312 -7.78125 C 2.6875 -7.140625 2.621094 -6.46875 2.621094 -5.761719 C 2.621094 -4.980469 2.691406 -4.273438 2.832031 -3.644531 C 2.972656 -3.015625 3.195312 -2.457031 3.5 -1.96875 C 3.792969 -1.492188 4.160156 -1.117188 4.605469 -0.851562 C 5.050781 -0.582031 5.582031 -0.449219 6.199219 -0.449219 C 6.78125 -0.449219 7.304688 -0.582031 7.773438 -0.855469 C 8.238281 -1.125 8.617188 -1.503906 8.910156 -1.992188 Z "/>
</g>
<g id="glyph-0-14">
<path d="M 12.644531 -10.96875 C 12.496094 -10.964844 12.261719 -10.921875 11.945312 -10.839844 C 11.632812 -10.757812 11.40625 -10.675781 11.269531 -10.585938 C 11.074219 -10.453125 10.945312 -10.191406 10.875 -9.804688 C 10.808594 -9.421875 10.773438 -8.933594 10.773438 -8.339844 L 10.773438 0.113281 L 10.066406 0.113281 L 3.066406 -9.335938 L 3.066406 -3.378906 C 3.066406 -2.710938 3.109375 -2.195312 3.195312 -1.839844 C 3.277344 -1.480469 3.40625 -1.226562 3.582031 -1.074219 C 3.707031 -0.953125 3.964844 -0.84375 4.355469 -0.742188 C 4.746094 -0.636719 5.003906 -0.582031 5.125 -0.578125 L 5.125 0 L 0.390625 0 L 0.390625 -0.578125 C 0.535156 -0.589844 0.785156 -0.640625 1.132812 -0.738281 C 1.476562 -0.832031 1.695312 -0.917969 1.78125 -0.992188 C 1.972656 -1.144531 2.101562 -1.375 2.171875 -1.6875 C 2.242188 -2 2.277344 -2.535156 2.277344 -3.289062 L 2.277344 -8.976562 C 2.277344 -9.226562 2.234375 -9.476562 2.148438 -9.726562 C 2.0625 -9.972656 1.945312 -10.167969 1.796875 -10.300781 C 1.601562 -10.480469 1.339844 -10.636719 1.003906 -10.761719 C 0.671875 -10.890625 0.402344 -10.960938 0.195312 -10.96875 L 0.195312 -11.546875 L 3.496094 -11.546875 L 9.984375 -2.742188 L 9.984375 -8.234375 C 9.984375 -8.910156 9.941406 -9.425781 9.855469 -9.785156 C 9.769531 -10.148438 9.644531 -10.386719 9.480469 -10.507812 C 9.328125 -10.609375 9.082031 -10.710938 8.734375 -10.808594 C 8.390625 -10.90625 8.128906 -10.960938 7.949219 -10.96875 L 7.949219 -11.546875 L 12.644531 -11.546875 Z "/>
</g>
<g id="glyph-0-15">
<path d="M 7.984375 -5.296875 C 8.226562 -5.027344 8.40625 -4.730469 8.523438 -4.40625 C 8.640625 -4.082031 8.699219 -3.707031 8.699219 -3.28125 C 8.699219 -2.257812 8.324219 -1.417969 7.566406 -0.757812 C 6.8125 -0.09375 5.878906 0.234375 4.761719 0.234375 C 4.246094 0.234375 3.730469 0.15625 3.214844 -0.00390625 C 2.699219 -0.164062 2.253906 -0.359375 1.878906 -0.585938 L 1.53125 0.0078125 L 0.878906 0.0078125 L 0.765625 -3.945312 L 1.425781 -3.945312 C 1.558594 -3.457031 1.71875 -3.019531 1.898438 -2.625 C 2.082031 -2.230469 2.320312 -1.863281 2.621094 -1.523438 C 2.902344 -1.203125 3.230469 -0.945312 3.609375 -0.757812 C 3.984375 -0.566406 4.425781 -0.472656 4.921875 -0.472656 C 5.296875 -0.472656 5.625 -0.519531 5.902344 -0.617188 C 6.183594 -0.714844 6.410156 -0.855469 6.582031 -1.035156 C 6.757812 -1.214844 6.886719 -1.425781 6.96875 -1.664062 C 7.054688 -1.90625 7.097656 -2.1875 7.097656 -2.5 C 7.097656 -2.964844 6.964844 -3.394531 6.707031 -3.792969 C 6.445312 -4.191406 6.058594 -4.496094 5.542969 -4.703125 C 5.1875 -4.84375 4.785156 -4.996094 4.328125 -5.167969 C 3.875 -5.335938 3.480469 -5.5 3.148438 -5.648438 C 2.5 -5.941406 1.992188 -6.328125 1.632812 -6.800781 C 1.269531 -7.273438 1.089844 -7.894531 1.089844 -8.660156 C 1.089844 -9.097656 1.179688 -9.507812 1.359375 -9.886719 C 1.539062 -10.269531 1.792969 -10.605469 2.125 -10.90625 C 2.4375 -11.1875 2.808594 -11.410156 3.238281 -11.566406 C 3.667969 -11.726562 4.113281 -11.808594 4.582031 -11.808594 C 5.113281 -11.808594 5.589844 -11.726562 6.011719 -11.5625 C 6.429688 -11.402344 6.8125 -11.210938 7.160156 -10.996094 L 7.496094 -11.546875 L 8.144531 -11.546875 L 8.210938 -7.714844 L 7.550781 -7.714844 C 7.433594 -8.152344 7.296875 -8.574219 7.148438 -8.976562 C 7 -9.378906 6.804688 -9.742188 6.566406 -10.066406 C 6.335938 -10.382812 6.050781 -10.632812 5.710938 -10.820312 C 5.375 -11.007812 4.964844 -11.101562 4.476562 -11.101562 C 3.960938 -11.101562 3.519531 -10.933594 3.15625 -10.605469 C 2.792969 -10.273438 2.613281 -9.867188 2.613281 -9.390625 C 2.613281 -8.890625 2.730469 -8.476562 2.960938 -8.148438 C 3.195312 -7.820312 3.535156 -7.550781 3.980469 -7.339844 C 4.375 -7.152344 4.765625 -6.988281 5.148438 -6.847656 C 5.53125 -6.710938 5.898438 -6.5625 6.257812 -6.40625 C 6.582031 -6.261719 6.898438 -6.101562 7.199219 -5.925781 C 7.5 -5.746094 7.761719 -5.535156 7.984375 -5.296875 Z "/>
</g>
</g>
</defs>
<g fill="rgb(100%, 100%, 100%)" fill-opacity="1">
<use xlink:href="#glyph-0-0" x="30" y="35.282227"/>
<use xlink:href="#glyph-0-1" x="37" y="35.282227"/>
<use xlink:href="#glyph-0-2" x="46" y="35.282227"/>
<use xlink:href="#glyph-0-3" x="56" y="35.282227"/>
<use xlink:href="#glyph-0-4" x="60" y="35.282227"/>
<use xlink:href="#glyph-0-5" x="70" y="35.282227"/>
<use xlink:href="#glyph-0-6" x="81" y="35.282227"/>
<use xlink:href="#glyph-0-7" x="93" y="35.282227"/>
<use xlink:href="#glyph-0-8" x="108" y="35.282227"/>
<use xlink:href="#glyph-0-9" x="121" y="35.282227"/>
<use xlink:href="#glyph-0-10" x="131" y="35.282227"/>
<use xlink:href="#glyph-0-11" x="142" y="35.282227"/>
<use xlink:href="#glyph-0-12" x="153" y="35.282227"/>
<use xlink:href="#glyph-0-13" x="159" y="35.282227"/>
<use xlink:href="#glyph-0-14" x="171" y="35.282227"/>
<use xlink:href="#glyph-0-5" x="184" y="35.282227"/>
<use xlink:href="#glyph-0-15" x="195" y="35.282227"/>
</g>
</svg>
