<?xml version="1.0" encoding="UTF-8"?>
<svg xmlns="http://www.w3.org/2000/svg" xmlns:xlink="http://www.w3.org/1999/xlink" width="854" height="480" viewBox="0 0 854 480">
<defs>
<g>
<g id="glyph-0-0">
<path d="M 6.582031 0 L 1.097656 0 L 1.097656 -0.578125 C 1.261719 -0.589844 1.515625 -0.613281 1.859375 -0.648438 C 2.203125 -0.683594 2.441406 -0.71875 2.570312 -0.757812 C 2.738281 -0.8125 2.867188 -0.898438 2.957031 -1.019531 C 3.046875 -1.144531 3.09375 -1.328125 3.09375 -1.570312 L 3.09375 -7.285156 L 1.066406 -7.285156 L 1.066406 -7.96875 L 1.511719 -7.96875 C 2.097656 -7.96875 2.625 -8.074219 3.089844 -8.292969 C 3.550781 -8.507812 3.882812 -8.742188 4.085938 -8.992188 L 4.761719 -8.992188 C 4.746094 -8.640625 4.726562 -8.226562 4.710938 -7.753906 C 4.695312 -7.285156 4.6875 -6.859375 4.6875 -6.484375 L 4.6875 -1.660156 C 4.6875 -1.46875 4.730469 -1.300781 4.8125 -1.152344 C 4.898438 -1.003906 5.019531 -0.890625 5.175781 -0.820312 C 5.316406 -0.761719 5.546875 -0.707031 5.867188 -0.660156 C 6.1875 -0.609375 6.425781 -0.582031 6.582031 -0.578125 Z "/>
</g>
<g id="glyph-0-1">
<path d="M 8.59375 -4.195312 C 8.59375 -3.25 8.445312 -2.363281 8.144531 -1.53125 C 7.847656 -0.699219 7.417969 0.03125 6.859375 0.660156 C 6.3125 1.277344 5.644531 1.792969 4.855469 2.203125 C 4.066406 2.609375 3.183594 2.882812 2.207031 3.011719 L 2.058594 2.277344 L 2.792969 2.148438 C 3.957031 1.78125 4.871094 1.210938 5.527344 0.449219 C 6.183594 -0.316406 6.605469 -1.289062 6.796875 -2.464844 C 6.351562 -2.085938 5.90625 -1.808594 5.464844 -1.632812 C 5.023438 -1.457031 4.523438 -1.367188 3.972656 -1.367188 C 3.085938 -1.367188 2.316406 -1.710938 1.664062 -2.398438 C 1.011719 -3.089844 0.683594 -3.953125 0.683594 -5 C 0.683594 -6.121094 1.0625 -7.070312 1.820312 -7.839844 C 2.574219 -8.609375 3.511719 -8.992188 4.621094 -8.992188 C 5.832031 -8.992188 6.796875 -8.5625 7.515625 -7.699219 C 8.234375 -6.835938 8.59375 -5.667969 8.59375 -4.195312 M 6.867188 -4.289062 C 6.867188 -5.558594 6.660156 -6.550781 6.246094 -7.269531 C 5.832031 -7.988281 5.285156 -8.347656 4.605469 -8.347656 C 3.960938 -8.347656 3.441406 -8.070312 3.042969 -7.515625 C 2.648438 -6.960938 2.449219 -6.191406 2.449219 -5.214844 C 2.449219 -4.335938 2.652344 -3.632812 3.054688 -3.101562 C 3.460938 -2.570312 4 -2.304688 4.679688 -2.304688 C 5.101562 -2.304688 5.492188 -2.378906 5.84375 -2.535156 C 6.195312 -2.691406 6.523438 -2.9375 6.828125 -3.28125 C 6.828125 -3.300781 6.832031 -3.34375 6.839844 -3.410156 C 6.847656 -3.476562 6.851562 -3.566406 6.851562 -3.6875 C 6.851562 -3.761719 6.855469 -3.855469 6.859375 -3.964844 C 6.867188 -4.070312 6.867188 -4.179688 6.867188 -4.289062 Z "/>
</g>
</g>
</defs>
<g fill="rgb(100%, 100%, 100%)" fill-opacity="1">
<use xlink:href="#glyph-0-0" x="30" y="35.282227"/>
<use xlink:href="#glyph-0-1" x="37" y="35.282227"/>
<use xlink:href="#glyph-0-1" x="46" y="35.282227"/>
<use xlink:href="#glyph-0-1" x="55" y="35.282227"/>
</g>
</svg>
